HIERARCHY
ROOT Root
{
  OFFSET 0.0 0.0 0.0
  CHANNELS 6 Xposition Yposition Zposition Zrotation Yrotation Xrotation
  JOINT Hips
  {
    OFFSET 0.0 100.0 0.0
    CHANNELS 6 Xposition Yposition Zposition Zrotation Yrotation Xrotation
    JOINT Spine1
    {
      OFFSET 5.003913 -0.037094 -0.013727
      CHANNELS 3 Zrotation Yrotation Xrotation
      JOINT Spine2
      {
        OFFSET 7.125363 -1e-06 0.0
        CHANNELS 3 Zrotation Yrotation Xrotation
        JOINT Chest
        {
          OFFSET 7.594027 1e-06 0.0
          CHANNELS 3 Zrotation Yrotation Xrotation
          JOINT Neck1
          {
            OFFSET 26.313086 -0.460272 -0.181672
            CHANNELS 3 Zrotation Yrotation Xrotation
            JOINT Neck2
            {
              OFFSET 8.045911 0.0 0.0
              CHANNELS 3 Zrotation Yrotation Xrotation
              JOINT Head
              {
                OFFSET 6.432774 0.0 0.0
                CHANNELS 3 Zrotation Yrotation Xrotation
                JOINT HeadEnd
                {
                  OFFSET 16.169773 0.06451 0.00362
                  CHANNELS 3 Zrotation Yrotation Xrotation
                }
                JOINT Jaw
                {
                  OFFSET 0.108741 3.12938 0.002639
                  CHANNELS 3 Zrotation Yrotation Xrotation
                }
                JOINT LeftEye
                {
                  OFFSET 4.45173 8.166359 3.206392
                  CHANNELS 3 Zrotation Yrotation Xrotation
                }
                JOINT RightEye
                {
                  OFFSET 4.436895 8.135758 -3.222429
                  CHANNELS 3 Zrotation Yrotation Xrotation
                }
              }
            }
          }
          JOINT LeftShoulder
          {
            OFFSET 23.218927 5.195579 1.621656
            CHANNELS 3 Zrotation Yrotation Xrotation
            JOINT LeftArm
            {
              OFFSET 15.902118 2e-06 -2e-06
              CHANNELS 3 Zrotation Yrotation Xrotation
              JOINT LeftForeArm
              {
                OFFSET 28.739307 0.0 -1e-06
                CHANNELS 3 Zrotation Yrotation Xrotation
                JOINT LeftHand
                {
                  OFFSET 27.093981 -4e-06 0.0
                  CHANNELS 3 Zrotation Yrotation Xrotation
                  JOINT LeftHandThumb1
                  {
                    OFFSET 2.276781 3.380274 0.83384
                    CHANNELS 3 Zrotation Yrotation Xrotation
                    JOINT LeftHandThumb2
                    {
                      OFFSET 4.705309 -1e-06 -1e-06
                      CHANNELS 3 Zrotation Yrotation Xrotation
                      JOINT LeftHandThumb3
                      {
                        OFFSET 2.798515 0.0 3e-06
                        CHANNELS 3 Zrotation Yrotation Xrotation
                        JOINT LeftHandThumbEnd
                        {
                          OFFSET 3.180793 4e-06 -4e-06
                          CHANNELS 3 Zrotation Yrotation Xrotation
                        }
                      }
                    }
                  }
                  JOINT LeftHandIndex1
                  {
                    OFFSET 3.247786 2.352677 0.137192
                    CHANNELS 3 Zrotation Yrotation Xrotation
                    JOINT LeftHandIndex2
                    {
                      OFFSET 6.367095 1e-06 0.0
                      CHANNELS 3 Zrotation Yrotation Xrotation
                      JOINT LeftHandIndex3
                      {
                        OFFSET 3.662364 0.0 0.0
                        CHANNELS 3 Zrotation Yrotation Xrotation
                        JOINT LeftHandIndex4
                        {
                          OFFSET 2.329242 4e-06 -4e-06
                          CHANNELS 3 Zrotation Yrotation Xrotation
                          JOINT LeftHandIndexEnd
                          {
                            OFFSET 2.767823 1e-06 0.0
                            CHANNELS 3 Zrotation Yrotation Xrotation
                          }
                        }
                      }
                    }
                  }
                  JOINT LeftHandMiddle1
                  {
                    OFFSET 3.163612 0.945023 -0.406112
                    CHANNELS 3 Zrotation Yrotation Xrotation
                    JOINT LeftHandMiddle2
                    {
                      OFFSET 6.276789 3e-06 0.0
                      CHANNELS 3 Zrotation Yrotation Xrotation
                      JOINT LeftHandMiddle3
                      {
                        OFFSET 4.35652 -1e-06 4e-06
                        CHANNELS 3 Zrotation Yrotation Xrotation
                        JOINT LeftHandMiddle4
                        {
                          OFFSET 2.996877 0.0 8e-06
                          CHANNELS 3 Zrotation Yrotation Xrotation
                          JOINT LeftHandMiddleEnd
                          {
                            OFFSET 2.323256 3e-06 -4e-06
                            CHANNELS 3 Zrotation Yrotation Xrotation
                          }
                        }
                      }
                    }
                  }
                  JOINT LeftHandRing1
                  {
                    OFFSET 2.882606 -0.309162 0.107445
                    CHANNELS 3 Zrotation Yrotation Xrotation
                    JOINT LeftHandRing2
                    {
                      OFFSET 6.033198 0.0 4e-06
                      CHANNELS 3 Zrotation Yrotation Xrotation
                      JOINT LeftHandRing3
                      {
                        OFFSET 4.350578 3e-06 0.0
                        CHANNELS 3 Zrotation Yrotation Xrotation
                        JOINT LeftHandRing4
                        {
                          OFFSET 2.651321 2e-06 -7e-06
                          CHANNELS 3 Zrotation Yrotation Xrotation
                          JOINT LeftHandRingEnd
                          {
                            OFFSET 1.937663 1e-06 -4e-06
                            CHANNELS 3 Zrotation Yrotation Xrotation
                          }
                        }
                      }
                    }
                  }
                  JOINT LeftHandPinky1
                  {
                    OFFSET 2.865315 -1.525436 0.575687
                    CHANNELS 3 Zrotation Yrotation Xrotation
                    JOINT LeftHandPinky2
                    {
                      OFFSET 5.54936 1e-06 -8e-06
                      CHANNELS 3 Zrotation Yrotation Xrotation
                      JOINT LeftHandPinky3
                      {
                        OFFSET 3.070974 0.0 -4e-06
                        CHANNELS 3 Zrotation Yrotation Xrotation
                        JOINT LeftHandPinky4
                        {
                          OFFSET 1.549672 1e-06 0.0
                          CHANNELS 3 Zrotation Yrotation Xrotation
                          JOINT LeftHandPinkyEnd
                          {
                            OFFSET 1.952123 0.0 0.0
                            CHANNELS 3 Zrotation Yrotation Xrotation
                          }
                        }
                      }
                    }
                  }
                }
              }
            }
          }
          JOINT RightShoulder
          {
            OFFSET 23.161716 5.296122 -1.380114
            CHANNELS 3 Zrotation Yrotation Xrotation
            JOINT RightArm
            {
              OFFSET -16.027195 -2e-06 1.1e-05
              CHANNELS 3 Zrotation Yrotation Xrotation
              JOINT RightForeArm
              {
                OFFSET -28.736639 4e-06 2e-06
                CHANNELS 3 Zrotation Yrotation Xrotation
                JOINT RightHand
                {
                  OFFSET -27.133619 6e-06 0.0
                  CHANNELS 3 Zrotation Yrotation Xrotation
                  JOINT RightHandThumb1
                  {
                    OFFSET -2.274328 -3.351035 -0.83067
                    CHANNELS 3 Zrotation Yrotation Xrotation
                    JOINT RightHandThumb2
                    {
                      OFFSET -4.703594 -3e-06 2e-06
                      CHANNELS 3 Zrotation Yrotation Xrotation
                      JOINT RightHandThumb3
                      {
                        OFFSET -2.794935 -4e-06 -3e-06
                        CHANNELS 3 Zrotation Yrotation Xrotation
                        JOINT RightHandThumbEnd
                        {
                          OFFSET -3.183852 4e-06 1e-06
                          CHANNELS 3 Zrotation Yrotation Xrotation
                        }
                      }
                    }
                  }
                  JOINT RightHandIndex1
                  {
                    OFFSET -3.253496 -2.33755 -0.127667
                    CHANNELS 3 Zrotation Yrotation Xrotation
                    JOINT RightHandIndex2
                    {
                      OFFSET -6.344434 0.0 0.0
                      CHANNELS 3 Zrotation Yrotation Xrotation
                      JOINT RightHandIndex3
                      {
                        OFFSET -3.654871 0.0 -8e-06
                        CHANNELS 3 Zrotation Yrotation Xrotation
                        JOINT RightHandIndex4
                        {
                          OFFSET -2.327586 -1e-06 0.0
                          CHANNELS 3 Zrotation Yrotation Xrotation
                          JOINT RightHandIndexEnd
                          {
                            OFFSET -2.770001 3e-06 8e-06
                            CHANNELS 3 Zrotation Yrotation Xrotation
                          }
                        }
                      }
                    }
                  }
                  JOINT RightHandMiddle1
                  {
                    OFFSET -3.168223 -0.944764 0.411762
                    CHANNELS 3 Zrotation Yrotation Xrotation
                    JOINT RightHandMiddle2
                    {
                      OFFSET -6.266691 -1e-06 -4e-06
                      CHANNELS 3 Zrotation Yrotation Xrotation
                      JOINT RightHandMiddle3
                      {
                        OFFSET -4.348901 0.0 0.0
                        CHANNELS 3 Zrotation Yrotation Xrotation
                        JOINT RightHandMiddle4
                        {
                          OFFSET -3.00024 2e-06 -4e-06
                          CHANNELS 3 Zrotation Yrotation Xrotation
                          JOINT RightHandMiddleEnd
                          {
                            OFFSET -2.321477 -4e-06 -4e-06
                            CHANNELS 3 Zrotation Yrotation Xrotation
                          }
                        }
                      }
                    }
                  }
                  JOINT RightHandRing1
                  {
                    OFFSET -2.885654 0.293261 -0.119232
                    CHANNELS 3 Zrotation Yrotation Xrotation
                    JOINT RightHandRing2
                    {
                      OFFSET -6.032835 -1e-06 -4e-06
                      CHANNELS 3 Zrotation Yrotation Xrotation
                      JOINT RightHandRing3
                      {
                        OFFSET -4.33881 0.0 -4e-06
                        CHANNELS 3 Zrotation Yrotation Xrotation
                        JOINT RightHandRing4
                        {
                          OFFSET -2.654903 -4e-06 -4e-06
                          CHANNELS 3 Zrotation Yrotation Xrotation
                          JOINT RightHandRingEnd
                          {
                            OFFSET -1.935122 0.0 4e-06
                            CHANNELS 3 Zrotation Yrotation Xrotation
                          }
                        }
                      }
                    }
                  }
                  JOINT RightHandPinky1
                  {
                    OFFSET -2.866241 1.503904 -0.60527
                    CHANNELS 3 Zrotation Yrotation Xrotation
                    JOINT RightHandPinky2
                    {
                      OFFSET -5.553177 -2e-06 0.0
                      CHANNELS 3 Zrotation Yrotation Xrotation
                      JOINT RightHandPinky3
                      {
                        OFFSET -3.062664 -1e-06 -4e-06
                        CHANNELS 3 Zrotation Yrotation Xrotation
                        JOINT RightHandPinky4
                        {
                          OFFSET -1.546529 2e-06 4e-06
                          CHANNELS 3 Zrotation Yrotation Xrotation
                          JOINT RightHandPinkyEnd
                          {
                            OFFSET -1.952341 0.0 -4e-06
                            CHANNELS 3 Zrotation Yrotation Xrotation
                          }
                        }
                      }
                    }
                  }
                }
              }
            }
          }
        }
      }
    }
    JOINT LeftLeg
    {
      OFFSET -8.443107 2.567604 10.043214
      CHANNELS 3 Zrotation Yrotation Xrotation
      JOINT LeftShin
      {
        OFFSET 43.229198 1e-06 -1e-06
        CHANNELS 3 Zrotation Yrotation Xrotation
        JOINT LeftFoot
        {
          OFFSET 42.298611 1e-06 1e-06
          CHANNELS 3 Zrotation Yrotation Xrotation
          JOINT LeftToeBase
          {
            OFFSET 14.165858 1e-06 0.0
            CHANNELS 3 Zrotation Yrotation Xrotation
            JOINT LeftToeEnd
            {
              OFFSET 6.7141 -0.234461 0.0
              CHANNELS 3 Zrotation Yrotation Xrotation
            }
          }
        }
      }
    }
    JOINT RightLeg
    {
      OFFSET -8.303923 2.592729 -10.047278
      CHANNELS 3 Zrotation Yrotation Xrotation
      JOINT RightShin
      {
        OFFSET -43.369682 0.0 1e-06
        CHANNELS 3 Zrotation Yrotation Xrotation
        JOINT RightFoot
        {
          OFFSET -42.260784 4e-06 2e-06
          CHANNELS 3 Zrotation Yrotation Xrotation
          JOINT RightToeBase
          {
            OFFSET -14.222245 -2e-06 -1e-06
            CHANNELS 3 Zrotation Yrotation Xrotation
            JOINT RightToeEnd
            {
              OFFSET -6.660062 0.232574 -2e-06
              CHANNELS 3 Zrotation Yrotation Xrotation
            }
          }
        }
      }
    }
  }
}
MOTION
Frames: 4
Frame Time: 0.03333333333333333
0.0 0.0 0.0 0.0 -0.0 0.0 0.319022 99.638245 -1.502165 89.831161 0.642323 90.048607 -1.27586 0.645093 -0.244668 -11.410255 -0.482622 -0.43016 15.864875 -0.096134 -2.646862 18.432665 -1.222715 2.666031 -2.483095 -0.724487 -0.241202 -29.797224 0.591057 -1.276202 6e-06 0.0 0.0 0.00427 0.011015 0.001369 0.020091 0.05399 0.002453 0.014184 -0.035014 0.007591 -133.517593 -72.397011 151.273056 33.869881 -39.705959 24.878263 38.686501 0.704222 0.170868 -1.759244 -6.386901 9.809607 17.636625 -26.322729 52.41119 -19.46666 -14.395597 29.410385 -0.0 -8.774819 -1e-06 16.166523 -17.95402 6.079593 -0.609775 -1.795654 -3.889326 -4.807089 -11.046811 -2.93785 4e-06 -20.976019 1e-06 -5.019969 -25.03356 -4.031881 5e-06 0.0 -0.0 -10.634533 -5.686971 -3.565587 10.573272 -17.922949 -3.113899 3e-06 -13.821205 1e-06 -0.501777 -31.181505 -4.027014 -11.554919 -59.947903 7.279957 -13.982711 -7.150196 -2.875042 13.772727 -8.401491 -3.21824 0.347735 -34.211544 0.771654 -0.963032 -17.73337 2.621022 1e-06 1e-06 0.0 -17.346413 -20.095215 -4.201782 21.757555 -1.638374 3.866428 1e-06 -6.338823 1e-06 -1.697589 -22.591745 -6.194008 -0.0 -4e-06 -4e-06 51.434483 -77.431267 145.971909 31.02676 -53.444412 10.347031 36.836037 0.097164 0.088241 3.233405 -2.332767 15.363285 22.18211 -20.375879 49.933308 -16.701811 -16.743528 28.476524 -3e-06 -12.690598 -4e-06 16.134205 -17.916481 2.538116 -0.105921 -1.513857 -4.27588 -5.039041 -5.612871 -2.953556 3e-06 -11.02052 -2e-06 -6.111299 -15.895329 -3.840471 0.0 0.0 -0.0 -10.283369 -5.680288 -4.34184 11.028292 -11.302401 -2.372629 -1.384269 -14.238577 -6.32012 -0.625436 -26.924183 -3.827604 -4.373683 -49.816273 -3.959963 -13.708523 -7.363475 -3.720938 18.141146 -14.052735 -3.242678 7e-06 -18.787266 -3e-06 -0.429712 -8.45604 2.555502 -0.0 1e-06 -0.0 -15.923538 -20.094482 -5.473579 30.41921 -7.190824 1.735925 2e-06 -8.162922 -2e-06 -1.861902 -22.861465 -6.167943 -0.0 -2e-06 1e-06 171.829208 -5.008523 -11.004045 19.825207 0.02992 0.073225 -79.517715 3.676793 -3.177125 -7.330438 1.484972 2.079152 -0.999999 0.0 -0.0 -6.625353 -3.962515 -8.669435 19.102222 -0.00561 -0.04209 -80.065598 -3.82148 -6.177752 -7.390176 0.845027 1.657788 -1.000001 0.0 -0.0 
0.0 0.0 0.0 0.0 -0.0 0.0 0.286405 99.660149 -1.485847 89.837379 0.6547 90.027969 -1.280242 0.621497 -0.271214 -11.405804 -0.463526 -0.362669 15.853846 -0.094155 -2.682313 18.449411 -1.249564 2.656552 -2.455559 -0.726523 -0.184481 -29.754602 0.549128 -1.259938 6e-06 -0.0 0.0 0.003674 0.013545 0.030362 0.033804 0.057552 0.033384 0.027161 -0.03353 0.0345 -133.482574 -72.398209 151.318939 33.970581 -39.719906 24.75234 38.598198 0.616143 0.116433 -1.687601 -6.35294 9.978224 17.636631 -26.322725 52.411186 -19.466661 -14.395597 29.410389 -0.0 -8.774821 -3e-06 16.118595 -17.921841 6.070216 -0.609776 -1.795654 -3.889328 -4.80709 -11.046811 -2.93785 3e-06 -20.976015 1e-06 -5.019969 -25.03356 -4.031882 6e-06 1e-06 1e-06 -10.634534 -5.686971 -3.565587 10.573275 -17.922949 -3.113901 3e-06 -13.821206 0.0 -0.501778 -31.181505 -4.027015 -11.469125 -59.884441 7.278575 -13.982713 -7.150198 -2.875042 13.772727 -8.401491 -3.21824 0.347733 -34.211555 0.771652 -0.96303 -17.73337 2.621018 -0.0 2e-06 1e-06 -17.34642 -20.095217 -4.201783 21.757561 -1.638375 3.866429 1e-06 -6.338823 1e-06 -1.697589 -22.591747 -6.194008 -0.0 -2e-06 -4e-06 51.546444 -77.41008 145.941498 31.107565 -53.497196 10.175162 36.681602 0.083374 0.076496 3.324534 -2.385974 15.398542 22.18211 -20.375891 49.933315 -16.701813 -16.74353 28.47653 -3e-06 -12.690601 -4e-06 16.102377 -17.925531 2.543641 -0.10592 -1.513858 -4.275879 -5.039042 -5.612873 -2.953558 4e-06 -11.020524 -2e-06 -6.111298 -15.895332 -3.840475 0.0 -1e-06 1e-06 -10.28337 -5.68029 -4.341838 11.028293 -11.302404 -2.372633 -1.384269 -14.238581 -6.320121 -0.625435 -26.924191 -3.827603 -4.41588 -49.891693 -3.909313 -13.708524 -7.363477 -3.720939 18.141146 -14.052738 -3.242674 5e-06 -18.787268 -1e-06 -0.429709 -8.456043 2.555502 1e-06 -0.0 2e-06 -15.923534 -20.094484 -5.473585 30.419207 -7.190824 1.735928 2e-06 -8.162925 -2e-06 -1.861902 -22.861467 -6.167944 0.0 -3e-06 -0.0 171.954086 -5.002336 -10.979993 19.62533 0.036589 0.113867 -79.432648 3.696187 -3.271747 -7.397202 1.506202 2.08226 -0.999998 0.0 -0.0 -6.525558 -3.924021 -8.629458 18.937645 -0.011608 -0.027409 -79.996986 -3.849525 -6.157761 -7.424935 0.836915 1.658973 -1.000001 0.0 -0.0 
0.0 0.0 0.0 0.0 -0.0 0.0 0.249399 99.661285 -1.483017 89.855812 0.663573 90.004349 -1.299904 0.595117 -0.29052 -11.417918 -0.454025 -0.331669 15.894735 -0.098434 -2.684243 18.4489 -1.293667 2.664746 -2.472736 -0.711195 -0.166394 -29.64517 0.51698 -1.240308 6e-06 -0.0 0.0 0.000368 0.015905 0.043655 0.029218 0.060448 0.049621 0.024481 -0.031922 0.044454 -133.520615 -72.396782 151.38562 33.982079 -39.714848 24.763979 38.616249 0.562066 0.087725 -1.641875 -6.378435 9.979383 17.636629 -26.322733 52.411182 -19.466654 -14.395597 29.410381 0.0 -8.774821 -3e-06 16.114056 -17.905128 6.065782 -0.609777 -1.795654 -3.889324 -4.807089 -11.046809 -2.937849 3e-06 -20.976013 4e-06 -5.019971 -25.033554 -4.031882 5e-06 0.0 0.0 -10.634534 -5.686968 -3.565586 10.573272 -17.922947 -3.1139 1e-06 -13.821206 4e-06 -0.501781 -31.181505 -4.027011 -11.469449 -59.809322 7.289582 -13.982714 -7.150198 -2.87504 13.772728 -8.401489 -3.218239 0.347731 -34.211544 0.771658 -0.963032 -17.733372 2.621022 1e-06 2e-06 0.0 -17.346418 -20.095215 -4.201778 21.757559 -1.638374 3.866427 0.0 -6.338823 2e-06 -1.697592 -22.591747 -6.194004 1e-06 -3e-06 -3e-06 51.55489 -77.385948 145.981705 31.073696 -53.526108 10.098433 36.610447 0.063838 0.065733 3.373417 -2.408883 15.541158 22.182119 -20.375895 49.933311 -16.701817 -16.74353 28.476532 -4e-06 -12.690601 -2e-06 16.080418 -17.895144 2.557262 -0.105919 -1.513856 -4.275882 -5.03904 -5.612873 -2.953556 4e-06 -11.020523 -3e-06 -6.111299 -15.895334 -3.840471 -0.0 -0.0 1e-06 -10.28337 -5.680289 -4.34184 11.028294 -11.302406 -2.372635 -1.384269 -14.238581 -6.320121 -0.625437 -26.924194 -3.8276 -4.443871 -49.913914 -3.873017 -13.708526 -7.363478 -3.720941 18.141151 -14.052739 -3.242676 6e-06 -18.78727 -2e-06 -0.429711 -8.456043 2.555502 2e-06 -1e-06 -0.0 -15.923536 -20.094486 -5.473586 30.41921 -7.190826 1.735929 1e-06 -8.162925 -3e-06 -1.861901 -22.861469 -6.167943 -1e-06 -3e-06 -0.0 171.994644 -4.997602 -10.952985 19.572342 0.037165 0.133011 -79.411148 3.692092 -3.3172 -7.371491 1.510066 2.085097 -0.999999 -0.0 0.0 -6.531898 -3.915027 -8.576818 18.964895 -0.007852 -0.026851 -80.014313 -3.902315 -6.144281 -7.387672 0.835465 1.660223 -1.000001 0.0 -0.0 
0.0 0.0 0.0 0.0 -0.0 0.0 0.220063 99.659676 -1.488409 89.865295 0.677325 90.000122 -1.310172 0.573422 -0.299311 -11.428545 -0.445991 -0.330858 15.937698 -0.104739 -2.666037 18.45896 -1.345798 2.666464 -2.50154 -0.694629 -0.137024 -29.573336 0.496194 -1.22717 6e-06 0.0 -0.0 -0.002892 0.016114 0.044843 0.015929 0.061229 0.052579 0.012167 -0.032384 0.0433 -133.588455 -72.390991 151.465149 33.99844 -39.723351 24.827314 38.642948 0.536219 0.093051 -1.586497 -6.391093 9.986407 17.636633 -26.322735 52.41119 -19.466663 -14.395598 29.410389 -0.0 -8.774822 -1e-06 16.116806 -17.886454 6.050671 -0.609777 -1.795654 -3.889327 -4.807089 -11.046811 -2.937849 4e-06 -20.976019 2e-06 -5.01997 -25.033562 -4.031882 4e-06 2e-06 1e-06 -10.634537 -5.68697 -3.565586 10.573278 -17.922955 -3.113901 3e-06 -13.821211 2e-06 -0.50178 -31.181511 -4.027014 -11.465623 -59.743862 7.263976 -13.982716 -7.150197 -2.875042 13.772731 -8.401494 -3.21824 0.347734 -34.211555 0.771656 -0.963031 -17.73337 2.621022 1e-06 3e-06 0.0 -17.346422 -20.095219 -4.201779 21.757566 -1.638376 3.866427 1e-06 -6.338825 1e-06 -1.69759 -22.591751 -6.194007 0.0 -4e-06 -2e-06 51.519726 -77.360687 146.053513 30.988108 -53.547634 10.130517 36.588093 0.075975 0.068727 3.372967 -2.473731 15.666733 22.182121 -20.375895 49.933323 -16.701817 -16.74353 28.476532 -4e-06 -12.690605 -3e-06 16.064152 -17.852282 2.57615 -0.10592 -1.513855 -4.275883 -5.039041 -5.612873 -2.953558 4e-06 -11.020525 -1e-06 -6.1113 -15.895334 -3.840472 0.0 -0.0 1e-06 -10.283373 -5.680288 -4.341837 11.028296 -11.302406 -2.372631 -1.384269 -14.238581 -6.320121 -0.625436 -26.924191 -3.827601 -4.46872 -49.893986 -3.833972 -13.708527 -7.363475 -3.720942 18.141151 -14.052739 -3.242674 6e-06 -18.78727 -0.0 -0.429713 -8.456041 2.555504 2e-06 -0.0 -0.0 -15.923539 -20.094484 -5.473584 30.419218 -7.190827 1.735927 1e-06 -8.162925 -2e-06 -1.8619 -22.861469 -6.167946 -1e-06 -2e-06 -0.0 172.01413 -5.002155 -10.942333 19.555777 0.033953 0.139066 -79.399208 3.689386 -3.331092 -7.334476 1.50064 2.083756 -0.999999 0.0 0.0 -6.538233 -3.900859 -8.514389 18.997887 -0.002189 -0.039011 -80.030014 -3.971646 -6.151587 -7.341972 0.833302 1.660531 -1.000001 0.0 0.0 
